<svg width="260" height="36" viewBox="0 0 260 36" fill="none" xmlns="http://www.w3.org/2000/svg">
<path d="M18.0256 17.3015C17.8804 17.3603 17.8804 17.4276 18.0256 17.5033C19.4293 18.1004 20.5087 18.9497 21.259 20.0597C22.0189 21.1698 22.411 22.511 22.44 24.0794C22.44 26.4129 21.6462 28.2251 20.0585 29.5118C18.4709 30.8026 16.3653 31.4459 13.7466 31.4459H4.95651C4.65641 31.4459 4.51111 31.3198 4.51111 31.0591V4.7044C4.51111 4.4479 4.65641 4.3175 4.95651 4.3175H13.3981C16.133 4.3175 18.2676 4.93561 19.8068 6.16761C21.3558 7.39111 22.1302 9.14031 22.1302 11.415C22.1302 12.8614 21.7817 14.0807 21.0847 15.0646C20.3877 16.0401 19.3664 16.7885 18.0256 17.3015ZM7.86071 6.72261C7.74451 6.72261 7.68651 6.77301 7.68651 6.87401V16.2251C7.68651 16.326 7.74451 16.3765 7.86071 16.3765H13.4369C15.1649 16.3765 16.525 15.9518 17.5222 15.0982C18.5145 14.2489 19.013 13.0968 19.013 11.6504C19.013 10.1284 18.5145 8.92581 17.5222 8.05131C16.525 7.16831 15.1649 6.72261 13.4369 6.72261H7.86071ZM13.6692 29.0072C15.3827 29.0072 16.7477 28.5447 17.7545 27.6113C18.771 26.682 19.2841 25.4164 19.2841 23.8103C19.2841 22.1873 18.7662 20.9091 17.7351 19.9756C16.7138 19.0464 15.3246 18.5797 13.5724 18.5797H7.86071C7.74451 18.5797 7.68651 18.6301 7.68651 18.7311V28.8558C7.68651 28.9568 7.74451 29.0072 7.86071 29.0072H13.6692Z" fill="#FFBA44" fill-opacity="0.302"/>
<path d="M45.6768 6.33581C45.6768 6.59651 45.5268 6.72261 45.2315 6.72261H31.8526C31.7364 6.72261 31.6784 6.77301 31.6784 6.87401V16.4942C31.6784 16.5951 31.7364 16.6456 31.8526 16.6456H40.8558C41.151 16.6456 41.3011 16.7759 41.3011 17.0324V18.6638C41.3011 18.9245 41.151 19.0506 40.8558 19.0506H31.8526C31.7364 19.0506 31.6784 19.1011 31.6784 19.202V28.8895C31.6784 28.9904 31.7364 29.0408 31.8526 29.0408H45.2315C45.5268 29.0408 45.6768 29.1712 45.6768 29.4277V31.0591C45.6768 31.3198 45.5268 31.4459 45.2315 31.4459H28.9484C28.6483 31.4459 28.5031 31.3198 28.5031 31.0591V4.7044C28.5031 4.4479 28.6483 4.3175 28.9484 4.3175H45.2315C45.5268 4.3175 45.6768 4.4479 45.6768 4.7044V6.33581Z" fill="#FFBA44" fill-opacity="0.302"/>
<path d="M68.461 4.58661C68.616 4.41001 68.795 4.3175 69.003 4.3175H71.327C71.622 4.3175 71.772 4.4479 71.772 4.7044V31.0591C71.772 31.3198 71.622 31.4459 71.327 31.4459H69.042C68.742 31.4459 68.597 31.3198 68.597 31.0591V9.98541C68.597 9.90971 68.563 9.85931 68.5 9.83401C68.447 9.80041 68.408 9.8256 68.384 9.9013L62.4397 18.8488C62.2945 19.0296 62.1203 19.1179 61.917 19.1179H61.4136C61.2054 19.1179 61.0312 19.0296 60.8908 18.8488L54.9081 9.9349C54.879 9.8593 54.8355 9.834 54.7725 9.8677C54.7193 9.8929 54.6951 9.94341 54.6951 10.019V31.0591C54.6951 31.3198 54.5402 31.4459 54.2304 31.4459H51.9651C51.665 31.4459 51.5198 31.3198 51.5198 31.0591V4.7044C51.5198 4.4479 51.665 4.3175 51.9651 4.3175H54.2885C54.4918 4.3175 54.666 4.41001 54.8113 4.58661L61.5491 14.5432C61.5878 14.5769 61.6314 14.5937 61.6846 14.5937C61.7476 14.5937 61.7911 14.5769 61.8202 14.5432L68.461 4.58661Z" fill="#FFBA44" fill-opacity="0.302"/>
<path d="M104.94 4.58661C105.095 4.41001 105.274 4.3175 105.482 4.3175H107.805C108.101 4.3175 108.251 4.4479 108.251 4.7044V31.0591C108.251 31.3198 108.101 31.4459 107.805 31.4459H105.521C105.22 31.4459 105.075 31.3198 105.075 31.0591V9.98541C105.075 9.90971 105.041 9.85931 104.978 9.83401C104.925 9.80041 104.886 9.8256 104.862 9.9013L98.918 18.8488C98.773 19.0296 98.599 19.1179 98.395 19.1179H97.892C97.684 19.1179 97.51 19.0296 97.369 18.8488L91.387 9.9349C91.358 9.8593 91.314 9.834 91.251 9.8677C91.198 9.8929 91.174 9.94341 91.174 10.019V31.0591C91.174 31.3198 91.019 31.4459 90.709 31.4459H88.444C88.144 31.4459 87.998 31.3198 87.998 31.0591V4.7044C87.998 4.4479 88.144 4.3175 88.444 4.3175H90.767C90.97 4.3175 91.145 4.41001 91.29 4.58661L98.028 14.5432C98.066 14.5769 98.11 14.5937 98.163 14.5937C98.226 14.5937 98.27 14.5769 98.299 14.5432L104.94 4.58661Z" fill="#FFBA44" fill-opacity="0.302"/>
<path d="M132.77 6.33581C132.77 6.59651 132.62 6.72261 132.325 6.72261H118.946C118.83 6.72261 118.772 6.77301 118.772 6.87401V16.4942C118.772 16.5951 118.83 16.6456 118.946 16.6456H127.949C128.245 16.6456 128.395 16.7759 128.395 17.0324V18.6638C128.395 18.9245 128.245 19.0506 127.949 19.0506H118.946C118.83 19.0506 118.772 19.1011 118.772 19.202V28.8895C118.772 28.9904 118.83 29.0408 118.946 29.0408H132.325C132.62 29.0408 132.77 29.1712 132.77 29.4277V31.0591C132.77 31.3198 132.62 31.4459 132.325 31.4459H116.042C115.742 31.4459 115.597 31.3198 115.597 31.0591V4.7044C115.597 4.4479 115.742 4.3175 116.042 4.3175H132.325C132.62 4.3175 132.77 4.4479 132.77 4.7044V6.33581Z" fill="#FFBA44" fill-opacity="0.302"/>
<path d="M155.258 4.0148C157.9 4.0148 160.03 4.7338 161.647 6.1676C163.273 7.6056 164.086 9.4935 164.086 11.8354V24.0121C164.086 26.0555 163.452 27.7584 162.189 29.1249C160.921 30.4956 159.207 31.3198 157.039 31.5973C156.908 31.6309 156.845 31.6982 156.845 31.7991V35.516C156.845 35.7725 156.695 35.9028 156.4 35.9028H154.096C153.796 35.9028 153.651 35.7725 153.651 35.516V31.7991C153.651 31.6982 153.583 31.6309 153.457 31.5973C151.313 31.3198 149.604 30.4956 148.326 29.1249C147.048 27.7584 146.409 26.0555 146.409 24.0121V11.8354C146.409 10.2881 146.782 8.9216 147.532 7.7317C148.278 6.546 149.318 5.6294 150.649 4.9903C151.99 4.3428 153.525 4.0148 155.258 4.0148ZM160.911 11.6504C160.911 10.0947 160.388 8.8333 159.343 7.8663C158.307 6.9034 156.947 6.4199 155.258 6.4199C153.554 6.4199 152.179 6.9034 151.133 7.8663C150.098 8.8333 149.585 10.0947 149.585 11.6504V24.1298C149.585 25.6771 150.098 26.9385 151.133 27.914C152.179 28.8811 153.554 29.3604 155.258 29.3604C156.947 29.3604 158.307 28.8811 159.343 27.914C160.388 26.9385 160.911 25.6771 160.911 24.1298V11.6504Z" fill="#FFBA44" fill-opacity="0.302"/>
<path d="M179.143 31.7486C177.333 31.7486 175.74 31.4207 174.361 30.7563C172.976 30.0836 171.907 29.1418 171.147 27.9308C170.382 26.7115 170.004 25.2987 170.004 23.6925V4.7044C170.004 4.4479 170.15 4.3175 170.45 4.3175H172.734C173.03 4.3175 173.18 4.4479 173.18 4.7044V23.8439C173.18 25.5047 173.727 26.8376 174.826 27.8467C175.919 28.8558 177.362 29.3604 179.143 29.3604C180.934 29.3604 182.381 28.8558 183.48 27.8467C184.574 26.8376 185.126 25.5047 185.126 23.8439V4.7044C185.126 4.4479 185.271 4.3175 185.571 4.3175H187.856C188.151 4.3175 188.301 4.4479 188.301 4.7044V23.6925C188.301 25.2987 187.919 26.7115 187.159 27.9308C186.394 29.1418 185.324 30.0836 183.945 30.7563C182.56 31.4207 180.963 31.7486 179.143 31.7486Z" fill="#FFBA44" fill-opacity="0.302"/>
<path d="M212.55 6.33581C212.55 6.59651 212.4 6.72261 212.105 6.72261H198.726C198.61 6.72261 198.552 6.77301 198.552 6.87401V16.4942C198.552 16.5951 198.61 16.6456 198.726 16.6456H207.729C208.024 16.6456 208.175 16.7759 208.175 17.0324V18.6638C208.175 18.9245 208.024 19.0506 207.729 19.0506H198.726C198.61 19.0506 198.552 19.1011 198.552 19.202V28.8895C198.552 28.9904 198.61 29.0408 198.726 29.0408H212.105C212.4 29.0408 212.55 29.1712 212.55 29.4277V31.0591C212.55 31.3198 212.4 31.4459 212.105 31.4459H195.822C195.522 31.4459 195.376 31.3198 195.376 31.0591V4.7044C195.376 4.4479 195.522 4.3175 195.822 4.3175H212.105C212.4 4.3175 212.55 4.4479 212.55 4.7044V6.33581Z" fill="#FFBA44" fill-opacity="0.302"/>
<path d="M233.747 31.4459C233.5 31.4459 233.331 31.345 233.244 31.1432L227.706 19.1683C227.677 19.0927 227.619 19.0506 227.532 19.0506H221.782C221.665 19.0506 221.607 19.1011 221.607 19.202V31.0591C221.607 31.3198 221.457 31.4459 221.162 31.4459H218.877C218.577 31.4459 218.432 31.3198 218.432 31.0591V4.7044C218.432 4.4479 218.577 4.3175 218.877 4.3175H228.345C229.894 4.3175 231.269 4.63291 232.469 5.25941C233.67 5.87751 234.604 6.75621 235.277 7.89991C235.945 9.03511 236.283 10.3344 236.283 11.8018C236.283 13.5635 235.79 15.0646 234.812 16.3092C233.829 17.5453 232.489 18.3695 230.785 18.7815C230.669 18.8278 230.639 18.8908 230.707 18.9665L236.458 30.975L236.496 31.1432C236.496 31.345 236.366 31.4459 236.109 31.4459H233.747ZM221.782 6.72261C221.665 6.72261 221.607 6.77301 221.607 6.87401V16.6792C221.607 16.7801 221.665 16.8306 221.782 16.8306H227.939C229.487 16.8306 230.731 16.3723 231.675 15.4514C232.629 14.5222 233.108 13.3071 233.108 11.8018C233.108 10.2797 232.629 9.05201 231.675 8.11851C230.731 7.18931 229.487 6.72261 227.939 6.72261H221.782Z" fill="#FFBA44" fill-opacity="0.302"/>
<path d="M250.284 31.7486C248.464 31.7486 246.862 31.4249 245.482 30.7732C244.098 30.113 243.028 29.188 242.268 27.9981C241.504 26.8124 241.126 25.4417 241.126 23.8944V11.9195C241.126 10.3722 241.504 9.0015 242.268 7.799C243.028 6.588 244.098 5.6588 245.482 5.0071C246.862 4.347 248.464 4.0148 250.284 4.0148C252.09 4.0148 253.682 4.347 255.066 5.0071C256.46 5.6588 257.535 6.588 258.3 7.799C259.074 9.0015 259.462 10.3722 259.462 11.9195V23.8944C259.462 25.4417 259.074 26.8124 258.3 27.9981C257.535 29.188 256.46 30.113 255.066 30.7732C253.682 31.4249 252.09 31.7486 250.284 31.7486ZM250.284 29.3604C252.09 29.3604 253.542 28.8685 254.64 27.8804C255.749 26.8965 256.306 25.6056 256.306 24.0121V11.8354C256.306 10.2124 255.749 8.9048 254.64 7.9167C253.542 6.9202 252.09 6.4199 250.284 6.4199C248.503 6.4199 247.056 6.9202 245.947 7.9167C244.848 8.9048 244.301 10.2124 244.301 11.8354V24.0121C244.301 25.6056 244.848 26.8965 245.947 27.8804C247.056 28.8685 248.503 29.3604 250.284 29.3604Z" fill="#FFBA44" fill-opacity="0.302"/>
<path d="M16.054 15.589C15.9088 15.6478 15.9088 15.7151 16.054 15.7908C17.4577 16.3879 18.5371 17.2372 19.2874 18.3472C20.0474 19.4573 20.4394 20.7985 20.4685 22.3669C20.4685 24.7004 19.6746 26.5126 18.087 27.7993C16.4993 29.0901 14.3938 29.7334 11.7751 29.7334H2.98491C2.68481 29.7334 2.53961 29.6073 2.53961 29.3466V2.9919C2.53961 2.7354 2.68481 2.605 2.98491 2.605H11.4266C14.1614 2.605 16.296 3.2231 17.8353 4.4551C19.3842 5.6786 20.1587 7.4278 20.1587 9.7025C20.1587 11.1489 19.8102 12.3682 19.1132 13.3521C18.4161 14.3276 17.3948 15.076 16.054 15.589ZM5.88911 5.0101C5.77301 5.0101 5.71491 5.0606 5.71491 5.1615V14.5126C5.71491 14.6135 5.77301 14.664 5.88911 14.664H11.4653C13.1933 14.664 14.5535 14.2393 15.5506 13.3857C16.5429 12.5364 17.0415 11.3843 17.0415 9.9379C17.0415 8.4159 16.5429 7.2133 15.5506 6.3388C14.5535 5.4558 13.1933 5.0101 11.4653 5.0101H5.88911ZM11.6976 27.2947C13.4111 27.2947 14.7761 26.8322 15.783 25.8988C16.7994 24.9695 17.3125 23.7039 17.3125 22.0978C17.3125 20.4748 16.7946 19.1966 15.7636 18.2631C14.7423 17.3339 13.3531 16.8672 11.6008 16.8672H5.88911C5.77301 16.8672 5.71491 16.9177 5.71491 17.0186V27.1433C5.71491 27.2443 5.77301 27.2947 5.88911 27.2947H11.6976Z" fill="#FFBA44" fill-opacity="0.502"/>
<path d="M43.7054 4.6233C43.7054 4.884 43.5553 5.0101 43.2601 5.0101H29.8812C29.765 5.0101 29.7069 5.0606 29.7069 5.1615V14.7817C29.7069 14.8826 29.765 14.9331 29.8812 14.9331H38.8843C39.1796 14.9331 39.3296 15.0634 39.3296 15.3199V16.9513C39.3296 17.212 39.1796 17.3381 38.8843 17.3381H29.8812C29.765 17.3381 29.7069 17.3886 29.7069 17.4895V27.177C29.7069 27.2779 29.765 27.3284 29.8812 27.3284H43.2601C43.5553 27.3284 43.7054 27.4587 43.7054 27.7152V29.3466C43.7054 29.6073 43.5553 29.7334 43.2601 29.7334H26.9769C26.6768 29.7334 26.5316 29.6073 26.5316 29.3466V2.9919C26.5316 2.7354 26.6768 2.605 26.9769 2.605H43.2601C43.5553 2.605 43.7054 2.7354 43.7054 2.9919V4.6233Z" fill="#FFBA44" fill-opacity="0.502"/>
<path d="M66.4898 2.8741C66.6446 2.6975 66.8237 2.605 67.032 2.605H69.355C69.651 2.605 69.801 2.7354 69.801 2.9919V29.3466C69.801 29.6073 69.651 29.7334 69.355 29.7334H67.071C66.7705 29.7334 66.6253 29.6073 66.6253 29.3466V8.2729C66.6253 8.1972 66.5914 8.1468 66.5285 8.1215C66.4752 8.0879 66.4365 8.1131 66.4123 8.1888L60.4683 17.1363C60.3231 17.3171 60.1488 17.4054 59.9455 17.4054H59.4421C59.234 17.4054 59.0597 17.3171 58.9193 17.1363L52.9366 8.2224C52.9076 8.1468 52.864 8.1215 52.8011 8.1552C52.7478 8.1804 52.7236 8.2309 52.7236 8.3065V29.3466C52.7236 29.6073 52.5687 29.7334 52.2589 29.7334H49.9936C49.6935 29.7334 49.5483 29.6073 49.5483 29.3466V2.9919C49.5483 2.7354 49.6935 2.605 49.9936 2.605H52.317C52.5203 2.605 52.6946 2.6975 52.8398 2.8741L59.5776 12.8307C59.6164 12.8644 59.6599 12.8812 59.7132 12.8812C59.7761 12.8812 59.8197 12.8644 59.8487 12.8307L66.4898 2.8741Z" fill="#FFBA44" fill-opacity="0.502"/>
<path d="M102.968 2.8741C103.123 2.6975 103.302 2.605 103.51 2.605H105.834C106.129 2.605 106.279 2.7354 106.279 2.9919V29.3466C106.279 29.6073 106.129 29.7334 105.834 29.7334H103.549C103.249 29.7334 103.104 29.6073 103.104 29.3466V8.2729C103.104 8.1972 103.07 8.1468 103.007 8.1215C102.954 8.0879 102.915 8.1131 102.891 8.1888L96.947 17.1363C96.802 17.3171 96.627 17.4054 96.424 17.4054H95.921C95.712 17.4054 95.538 17.3171 95.398 17.1363L89.415 8.2224C89.386 8.1468 89.342 8.1215 89.28 8.1552C89.226 8.1804 89.202 8.2309 89.202 8.3065V29.3466C89.202 29.6073 89.047 29.7334 88.737 29.7334H86.472C86.172 29.7334 86.027 29.6073 86.027 29.3466V2.9919C86.027 2.7354 86.172 2.605 86.472 2.605H88.796C88.999 2.605 89.173 2.6975 89.318 2.8741L96.056 12.8307C96.095 12.8644 96.138 12.8812 96.192 12.8812C96.255 12.8812 96.298 12.8644 96.327 12.8307L102.968 2.8741Z" fill="#FFBA44" fill-opacity="0.502"/>
<path d="M130.799 4.6233C130.799 4.884 130.649 5.0101 130.354 5.0101H116.975C116.858 5.0101 116.8 5.0606 116.8 5.1615V14.7817C116.8 14.8826 116.858 14.9331 116.975 14.9331H125.978C126.273 14.9331 126.423 15.0634 126.423 15.3199V16.9513C126.423 17.212 126.273 17.3381 125.978 17.3381H116.975C116.858 17.3381 116.8 17.3886 116.8 17.4895V27.177C116.8 27.2779 116.858 27.3284 116.975 27.3284H130.354C130.649 27.3284 130.799 27.4587 130.799 27.7152V29.3466C130.799 29.6073 130.649 29.7334 130.354 29.7334H114.07C113.77 29.7334 113.625 29.6073 113.625 29.3466V2.9919C113.625 2.7354 113.77 2.605 114.07 2.605H130.354C130.649 2.605 130.799 2.7354 130.799 2.9919V4.6233Z" fill="#FFBA44" fill-opacity="0.502"/>
<path d="M153.286 2.30231C155.929 2.30231 158.059 3.02131 159.675 4.45511C161.302 5.89311 162.115 7.78101 162.115 10.1229V22.2996C162.115 24.3431 161.481 26.0459 160.218 27.4124C158.949 28.7832 157.236 29.6073 155.067 29.8848C154.937 29.9184 154.874 29.9857 154.874 30.0866V33.8035C154.874 34.06 154.724 34.1903 154.428 34.1903H152.124C151.824 34.1903 151.679 34.06 151.679 33.8035V30.0866C151.679 29.9857 151.611 29.9184 151.485 29.8848C149.341 29.6073 147.632 28.7832 146.355 27.4124C145.077 26.0459 144.438 24.3431 144.438 22.2996V10.1229C144.438 8.57561 144.81 7.20911 145.561 6.01921C146.306 4.83351 147.347 3.91691 148.678 3.27781C150.019 2.63031 151.553 2.30231 153.286 2.30231ZM158.94 9.93791C158.94 8.38221 158.417 7.12081 157.371 6.15381C156.336 5.19091 154.975 4.70741 153.286 4.70741C151.582 4.70741 150.208 5.19091 149.162 6.15381C148.126 7.12081 147.613 8.38221 147.613 9.93791V22.4173C147.613 23.9646 148.126 25.226 149.162 26.2015C150.208 27.1686 151.582 27.6479 153.286 27.6479C154.975 27.6479 156.336 27.1686 157.371 26.2015C158.417 25.226 158.94 23.9646 158.94 22.4173V9.93791Z" fill="#FFBA44" fill-opacity="0.502"/>
<path d="M177.172 30.0361C175.361 30.0361 173.769 29.7082 172.389 29.0438C171.005 28.3711 169.935 27.4293 169.175 26.2183C168.411 24.999 168.033 23.5862 168.033 21.98V2.9919C168.033 2.7354 168.178 2.605 168.478 2.605H170.763C171.058 2.605 171.208 2.7354 171.208 2.9919V22.1314C171.208 23.7922 171.755 25.1251 172.854 26.1342C173.948 27.1433 175.39 27.6479 177.172 27.6479C178.963 27.6479 180.41 27.1433 181.509 26.1342C182.603 25.1251 183.154 23.7922 183.154 22.1314V2.9919C183.154 2.7354 183.3 2.605 183.6 2.605H185.884C186.18 2.605 186.33 2.7354 186.33 2.9919V21.98C186.33 23.5862 185.947 24.999 185.187 26.2183C184.423 27.4293 183.353 28.3711 181.973 29.0438C180.589 29.7082 178.992 30.0361 177.172 30.0361Z" fill="#FFBA44" fill-opacity="0.502"/>
<path d="M210.579 4.6233C210.579 4.884 210.429 5.0101 210.133 5.0101H196.755C196.638 5.0101 196.58 5.0606 196.58 5.1615V14.7817C196.58 14.8826 196.638 14.9331 196.755 14.9331H205.758C206.053 14.9331 206.203 15.0634 206.203 15.3199V16.9513C206.203 17.212 206.053 17.3381 205.758 17.3381H196.755C196.638 17.3381 196.58 17.3886 196.58 17.4895V27.177C196.58 27.2779 196.638 27.3284 196.755 27.3284H210.133C210.429 27.3284 210.579 27.4587 210.579 27.7152V29.3466C210.579 29.6073 210.429 29.7334 210.133 29.7334H193.85C193.55 29.7334 193.405 29.6073 193.405 29.3466V2.9919C193.405 2.7354 193.55 2.605 193.85 2.605H210.133C210.429 2.605 210.579 2.7354 210.579 2.9919V4.6233Z" fill="#FFBA44" fill-opacity="0.502"/>
<path d="M231.776 29.7334C231.529 29.7334 231.359 29.6325 231.272 29.4307L225.735 17.4558C225.706 17.3802 225.648 17.3381 225.56 17.3381H219.81C219.694 17.3381 219.636 17.3886 219.636 17.4895V29.3466C219.636 29.6073 219.486 29.7334 219.19 29.7334H216.906C216.606 29.7334 216.46 29.6073 216.46 29.3466V2.9919C216.46 2.7354 216.606 2.605 216.906 2.605H226.374C227.923 2.605 229.297 2.9204 230.498 3.5469C231.698 4.165 232.632 5.0437 233.305 6.1874C233.973 7.3227 234.312 8.62189 234.312 10.0893C234.312 11.8511 233.818 13.3521 232.84 14.5967C231.858 15.8329 230.517 16.657 228.813 17.069C228.697 17.1153 228.668 17.1783 228.736 17.254L234.486 29.2625L234.525 29.4307C234.525 29.6325 234.394 29.7334 234.138 29.7334H231.776ZM219.81 5.0101C219.694 5.0101 219.636 5.0606 219.636 5.1615V14.9667C219.636 15.0676 219.694 15.1181 219.81 15.1181H225.967C227.516 15.1181 228.76 14.6598 229.704 13.7389C230.657 12.8097 231.137 11.5946 231.137 10.0893C231.137 8.56719 230.657 7.3395 229.704 6.406C228.76 5.4768 227.516 5.0101 225.967 5.0101H219.81Z" fill="#FFBA44" fill-opacity="0.502"/>
<path d="M248.313 30.0361C246.493 30.0361 244.89 29.7124 243.511 29.0607C242.127 28.4005 241.057 27.4755 240.297 26.2856C239.532 25.0999 239.155 23.7292 239.155 22.1819V10.207C239.155 8.65971 239.532 7.28901 240.297 6.08651C241.057 4.87551 242.127 3.94631 243.511 3.29461C244.89 2.63451 246.493 2.30231 248.313 2.30231C250.118 2.30231 251.711 2.63451 253.095 3.29461C254.489 3.94631 255.564 4.87551 256.328 6.08651C257.103 7.28901 257.49 8.65971 257.49 10.207V22.1819C257.49 23.7292 257.103 25.0999 256.328 26.2856C255.564 27.4755 254.489 28.4005 253.095 29.0607C251.711 29.7124 250.118 30.0361 248.313 30.0361ZM248.313 27.6479C250.118 27.6479 251.57 27.156 252.669 26.1679C253.777 25.184 254.334 23.8932 254.334 22.2996V10.1229C254.334 8.50001 253.777 7.19231 252.669 6.20421C251.57 5.20771 250.118 4.70741 248.313 4.70741C246.531 4.70741 245.084 5.20771 243.976 6.20421C242.877 7.19231 242.33 8.50001 242.33 10.1229V22.2996C242.33 23.8932 242.877 25.184 243.976 26.1679C245.084 27.156 246.531 27.6479 248.313 27.6479Z" fill="#FFBA44" fill-opacity="0.502"/>
<path d="M14.0827 13.8765C13.9375 13.9353 13.9375 14.0026 14.0827 14.0783C15.4864 14.6753 16.5658 15.5247 17.3161 16.6347C18.076 17.7447 18.4681 19.086 18.4972 20.6543C18.4972 22.9879 17.7033 24.8001 16.1157 26.0867C14.528 27.3776 12.4224 28.0209 9.8038 28.0209H1.0136C0.713499 28.0209 0.568298 27.8947 0.568298 27.6341V1.2793C0.568298 1.0229 0.713499 0.892502 1.0136 0.892502H9.4553C12.1901 0.892502 14.3247 1.5106 15.864 2.7426C17.4129 3.9661 18.1874 5.7152 18.1874 7.99C18.1874 9.4364 17.8389 10.6557 17.1418 11.6396C16.4448 12.6151 15.4235 13.3635 14.0827 13.8765ZM3.9178 3.2976C3.8017 3.2976 3.7436 3.348 3.7436 3.4489V12.8001C3.7436 12.901 3.8017 12.9514 3.9178 12.9514H9.494C11.222 12.9514 12.5822 12.5268 13.5793 11.6732C14.5716 10.8239 15.0701 9.6718 15.0701 8.2254C15.0701 6.7033 14.5716 5.5008 13.5793 4.6262C12.5822 3.7433 11.222 3.2976 9.494 3.2976H3.9178ZM9.7263 25.5822C11.4398 25.5822 12.8048 25.1197 13.8116 24.1862C14.8281 23.257 15.3412 21.9914 15.3412 20.3852C15.3412 18.7623 14.8233 17.484 13.7923 16.5506C12.7709 15.6214 11.3818 15.1547 9.6295 15.1547H3.9178C3.8017 15.1547 3.7436 15.2051 3.7436 15.306V25.4308C3.7436 25.5317 3.8017 25.5822 3.9178 25.5822H9.7263Z" fill="#FFBA44"/>
<path d="M41.7339 2.9107C41.7339 3.1714 41.5839 3.2976 41.2886 3.2976H27.9097C27.7935 3.2976 27.7355 3.348 27.7355 3.4489V13.0692C27.7355 13.1701 27.7935 13.2205 27.9097 13.2205H36.9129C37.2081 13.2205 37.3582 13.3509 37.3582 13.6074V15.2388C37.3582 15.4995 37.2081 15.6256 36.9129 15.6256H27.9097C27.7935 15.6256 27.7355 15.676 27.7355 15.777V25.4645C27.7355 25.5654 27.7935 25.6158 27.9097 25.6158H41.2886C41.5839 25.6158 41.7339 25.7462 41.7339 26.0027V27.6341C41.7339 27.8947 41.5839 28.0209 41.2886 28.0209H25.0055C24.7054 28.0209 24.5602 27.8947 24.5602 27.6341V1.2793C24.5602 1.0229 24.7054 0.892502 25.0055 0.892502H41.2886C41.5839 0.892502 41.7339 1.0229 41.7339 1.2793V2.9107Z" fill="#FFBA44"/>
<path d="M64.5184 1.1616C64.6733 0.985002 64.8524 0.892502 65.0605 0.892502H67.384C67.679 0.892502 67.829 1.0229 67.829 1.2793V27.6341C67.829 27.8947 67.679 28.0209 67.384 28.0209H65.0992C64.7991 28.0209 64.6539 27.8947 64.6539 27.6341V6.5604C64.6539 6.4847 64.62 6.4342 64.5571 6.409C64.5039 6.3754 64.4651 6.4006 64.4409 6.4763L58.4969 15.4238C58.3517 15.6046 58.1774 15.6929 57.9741 15.6929H57.4707C57.2626 15.6929 57.0883 15.6046 56.948 15.4238L50.9652 6.5099C50.9362 6.4342 50.8926 6.409 50.8297 6.4426C50.7764 6.4679 50.7522 6.5183 50.7522 6.594V27.6341C50.7522 27.8947 50.5974 28.0209 50.2876 28.0209H48.0223C47.7221 28.0209 47.5769 27.8947 47.5769 27.6341V1.2793C47.5769 1.0229 47.7221 0.892502 48.0223 0.892502H50.3457C50.5489 0.892502 50.7232 0.985002 50.8684 1.1616L57.6063 11.1182C57.645 11.1518 57.6886 11.1687 57.7418 11.1687C57.8047 11.1687 57.8483 11.1518 57.8773 11.1182L64.5184 1.1616Z" fill="#FFBA44"/>
<path d="M100.997 1.1616C101.152 0.985002 101.331 0.892502 101.539 0.892502H103.862C104.158 0.892502 104.308 1.0229 104.308 1.2793V27.6341C104.308 27.8947 104.158 28.0209 103.862 28.0209H101.578C101.278 28.0209 101.132 27.8947 101.132 27.6341V6.5604C101.132 6.4847 101.099 6.4342 101.036 6.409C100.982 6.3754 100.944 6.4006 100.919 6.4763L94.975 15.4238C94.83 15.6046 94.656 15.6929 94.453 15.6929H93.949C93.741 15.6929 93.567 15.6046 93.426 15.4238L87.444 6.5099C87.415 6.4342 87.371 6.409 87.308 6.4426C87.255 6.4679 87.231 6.5183 87.231 6.594V27.6341C87.231 27.8947 87.076 28.0209 86.766 28.0209H84.501C84.201 28.0209 84.055 27.8947 84.055 27.6341V1.2793C84.055 1.0229 84.201 0.892502 84.501 0.892502H86.824C87.027 0.892502 87.202 0.985002 87.347 1.1616L94.085 11.1182C94.123 11.1518 94.167 11.1687 94.22 11.1687C94.283 11.1687 94.327 11.1518 94.356 11.1182L100.997 1.1616Z" fill="#FFBA44"/>
<path d="M128.827 2.9107C128.827 3.1714 128.677 3.2976 128.382 3.2976H115.003C114.887 3.2976 114.829 3.348 114.829 3.4489V13.0692C114.829 13.1701 114.887 13.2205 115.003 13.2205H124.006C124.302 13.2205 124.452 13.3509 124.452 13.6074V15.2388C124.452 15.4995 124.302 15.6256 124.006 15.6256H115.003C114.887 15.6256 114.829 15.676 114.829 15.777V25.4645C114.829 25.5654 114.887 25.6158 115.003 25.6158H128.382C128.677 25.6158 128.827 25.7462 128.827 26.0027V27.6341C128.827 27.8947 128.677 28.0209 128.382 28.0209H112.099C111.799 28.0209 111.654 27.8947 111.654 27.6341V1.2793C111.654 1.0229 111.799 0.892502 112.099 0.892502H128.382C128.677 0.892502 128.827 1.0229 128.827 1.2793V2.9107Z" fill="#FFBA44"/>
<path d="M151.315 0.589798C153.958 0.589798 156.087 1.3088 157.704 2.7426C159.33 4.1805 160.144 6.0684 160.144 8.4104V20.5871C160.144 22.6305 159.51 24.3334 158.246 25.6999C156.978 27.0706 155.264 27.8947 153.096 28.1722C152.965 28.2059 152.902 28.2732 152.902 28.3741V32.091C152.902 32.3475 152.752 32.4778 152.457 32.4778H150.153C149.853 32.4778 149.708 32.3475 149.708 32.091V28.3741C149.708 28.2732 149.64 28.2059 149.514 28.1722C147.37 27.8947 145.661 27.0706 144.383 25.6999C143.105 24.3334 142.466 22.6305 142.466 20.5871V8.4104C142.466 6.8631 142.839 5.4966 143.589 4.3067C144.335 3.121 145.376 2.2044 146.707 1.5653C148.047 0.917698 149.582 0.589798 151.315 0.589798ZM156.968 8.2254C156.968 6.6697 156.446 5.4083 155.4 4.4412C154.364 3.4784 153.004 2.9948 151.315 2.9948C149.611 2.9948 148.236 3.4784 147.191 4.4412C146.155 5.4083 145.642 6.6697 145.642 8.2254V20.7048C145.642 22.2521 146.155 23.5135 147.191 24.489C148.236 25.456 149.611 25.9354 151.315 25.9354C153.004 25.9354 154.364 25.456 155.4 24.489C156.446 23.5135 156.968 22.2521 156.968 20.7048V8.2254Z" fill="#FFBA44"/>
<path d="M175.2 28.3236C173.39 28.3236 171.797 27.9957 170.418 27.3313C169.034 26.6586 167.964 25.7167 167.204 24.5058C166.439 23.2865 166.062 21.8737 166.062 20.2675V1.2793C166.062 1.0229 166.207 0.892502 166.507 0.892502H168.792C169.087 0.892502 169.237 1.0229 169.237 1.2793V20.4189C169.237 22.0797 169.784 23.4126 170.883 24.4217C171.977 25.4308 173.419 25.9354 175.2 25.9354C176.991 25.9354 178.439 25.4308 179.537 24.4217C180.631 23.4126 181.183 22.0797 181.183 20.4189V1.2793C181.183 1.0229 181.328 0.892502 181.628 0.892502H183.913C184.208 0.892502 184.358 1.0229 184.358 1.2793V20.2675C184.358 21.8737 183.976 23.2865 183.216 24.5058C182.451 25.7167 181.382 26.6586 180.002 27.3313C178.618 27.9957 177.02 28.3236 175.2 28.3236Z" fill="#FFBA44"/>
<path d="M208.607 2.9107C208.607 3.1714 208.457 3.2976 208.162 3.2976H194.783C194.667 3.2976 194.609 3.348 194.609 3.4489V13.0692C194.609 13.1701 194.667 13.2205 194.783 13.2205H203.786C204.082 13.2205 204.232 13.3509 204.232 13.6074V15.2388C204.232 15.4995 204.082 15.6256 203.786 15.6256H194.783C194.667 15.6256 194.609 15.676 194.609 15.777V25.4645C194.609 25.5654 194.667 25.6158 194.783 25.6158H208.162C208.457 25.6158 208.607 25.7462 208.607 26.0027V27.6341C208.607 27.8947 208.457 28.0209 208.162 28.0209H191.879C191.579 28.0209 191.434 27.8947 191.434 27.6341V1.2793C191.434 1.0229 191.579 0.892502 191.879 0.892502H208.162C208.457 0.892502 208.607 1.0229 208.607 1.2793V2.9107Z" fill="#FFBA44"/>
<path d="M229.804 28.0209C229.557 28.0209 229.388 27.92 229.301 27.7181L223.763 15.7433C223.734 15.6676 223.676 15.6256 223.589 15.6256H217.839C217.722 15.6256 217.664 15.676 217.664 15.777V27.6341C217.664 27.8947 217.514 28.0209 217.219 28.0209H214.934C214.634 28.0209 214.489 27.8947 214.489 27.6341V1.2793C214.489 1.0229 214.634 0.892502 214.934 0.892502H224.402C225.951 0.892502 227.326 1.2079 228.526 1.8344C229.727 2.4524 230.661 3.3312 231.334 4.4749C232.002 5.6101 232.341 6.9094 232.341 8.3768C232.341 10.1385 231.847 11.6396 230.869 12.8842C229.886 14.1203 228.546 14.9444 226.842 15.3565C226.726 15.4027 226.697 15.4658 226.764 15.5415L232.515 27.55L232.553 27.7181C232.553 27.92 232.423 28.0209 232.166 28.0209H229.804ZM217.839 3.2976C217.722 3.2976 217.664 3.348 217.664 3.4489V13.2542C217.664 13.3551 217.722 13.4055 217.839 13.4055H223.996C225.545 13.4055 226.789 12.9472 227.732 12.0264C228.686 11.0972 229.165 9.882 229.165 8.3768C229.165 6.8547 228.686 5.6269 227.732 4.6935C226.789 3.7643 225.545 3.2976 223.996 3.2976H217.839Z" fill="#FFBA44"/>
<path d="M246.341 28.3236C244.521 28.3236 242.919 27.9999 241.54 27.3481C240.155 26.688 239.085 25.763 238.326 24.5731C237.561 23.3874 237.183 22.0167 237.183 20.4693V8.4945C237.183 6.9472 237.561 5.5765 238.326 4.374C239.085 3.163 240.155 2.2338 241.54 1.5821C242.919 0.921898 244.521 0.589798 246.341 0.589798C248.147 0.589798 249.739 0.921898 251.124 1.5821C252.518 2.2338 253.592 3.163 254.357 4.374C255.131 5.5765 255.519 6.9472 255.519 8.4945V20.4693C255.519 22.0167 255.131 23.3874 254.357 24.5731C253.592 25.763 252.518 26.688 251.124 27.3481C249.739 27.9999 248.147 28.3236 246.341 28.3236ZM246.341 25.9354C248.147 25.9354 249.599 25.4434 250.698 24.4553C251.806 23.4715 252.363 22.1806 252.363 20.5871V8.4104C252.363 6.7874 251.806 5.4798 250.698 4.4917C249.599 3.4952 248.147 2.9948 246.341 2.9948C244.56 2.9948 243.113 3.4952 242.004 4.4917C240.905 5.4798 240.358 6.7874 240.358 8.4104V20.5871C240.358 22.1806 240.905 23.4715 242.004 24.4553C243.113 25.4434 244.56 25.9354 246.341 25.9354Z" fill="#FFBA44"/>
</svg>
